# xmcd CD database file
#
# Track frame offsets:
#	150
#	14202
#	25627
#	40295
#	52282
#	64410
#	80582
#	95727
#	110225
#	122912
#	137420
#	151625
#
# Disc length: 2181 seconds
#
# Revision: 0
# Processed by: cddbd v1.5.2PL0 Copyright (c) Steve Scherf et al.
# Submitted via: CdAid (MTCDDB.DLL V2003.12.21)
#
DISCID=ab08830c
DTITLE=Banda Ska - Mania
DYEAR=1996
DGENRE=Country
TTITLE0=Eu Sei
TTITLE1=Naftalina
TTITLE2=Homem - Produto do Meio
TTITLE3=Apocalipse 2000
TTITLE4=Encantos de Axé
TTITLE5=Preconceito de Cor
TTITLE6=Mania
TTITLE7=Casinha de Amor
TTITLE8=Louco de Prazer
TTITLE9=Minha Paixão
TTITLE10=Colibri
TTITLE11=Quadro da Vida
EXTD=ID3G:   2 YEAR: 1996
EXTT0=
EXTT1=
EXTT2=
EXTT3=
EXTT4=
EXTT5=
EXTT6=
EXTT7=
EXTT8=
EXTT9=
EXTT10=
EXTT11=
PLAYORDER=
